<svg width="368" height="78" viewBox="0 0 368 78" fill="none" xmlns="http://www.w3.org/2000/svg">
<path d="M43.0581 77.0165C41.6845 76.7564 40.3068 76.5065 38.9352 76.2383C23.303 73.1821 11.0989 60.6041 8.49994 44.8683C5.02928 23.8635 18.9302 4.3177 39.9959 0.582885C60.576 -3.06658 80.6481 10.8099 84.452 31.3189C88.2031 51.5373 75.6311 71.0526 55.683 75.9152C53.9171 76.346 52.0904 76.5207 50.2921 76.8235C50.1092 76.854 49.9365 76.9515 49.7597 77.0186H43.0581V77.0165ZM77.6082 38.5447C77.6082 21.354 63.752 7.49168 46.5674 7.47339C29.4539 7.4551 15.7603 21.1894 15.4331 37.866C15.0897 55.4062 29.2853 69.5489 46.4963 69.5449C63.6992 69.5408 77.6062 55.6948 77.6062 38.5427L77.6082 38.5447Z" fill="#4B93CF"/>
<path d="M367.999 28.1735C363.913 28.2954 359.818 28.3564 355.834 29.4293C354.224 29.8621 354.228 29.8824 354.228 31.5039V58.0987H345.527V19.4217C347.886 19.4217 350.213 19.4034 352.538 19.4521C352.751 19.4562 353.092 19.8606 353.139 20.1227C353.332 21.2159 353.436 22.3234 353.586 23.5507C358.038 20.7221 362.852 19.3384 367.999 19.0559V28.1755V28.1735Z" fill="#777373"/>
<path d="M141.376 5.7583H150.228V58.0945H141.417V35.7526H119.008V58.0945H110.177V5.76236H118.98V27.3788H141.374V5.7583H141.376Z" fill="#777373"/>
<path d="M324.545 20.8479V1.09082H333.319V58.1087H325.778C325.614 57.2004 325.445 56.2819 325.25 55.2111C324.925 55.394 324.646 55.5403 324.378 55.7008C319.997 58.3119 315.299 59.6083 310.164 59.2161C305.302 58.8443 302.073 56.3571 300.356 51.84C299.043 48.3897 298.649 44.7849 298.499 41.1314C298.32 36.7707 298.415 32.4303 299.584 28.1875C300.392 25.2493 301.634 22.5243 304.127 20.5939C307.078 18.312 310.52 18.0661 314.064 18.3608C317.555 18.6514 320.93 19.4235 324.153 20.8215C324.236 20.8581 324.346 20.8358 324.543 20.8479H324.545ZM324.537 38.571C324.537 35.1593 324.52 31.7476 324.551 28.3379C324.557 27.6775 324.394 27.3707 323.699 27.2873C320.653 26.9216 317.624 26.3262 314.568 26.1698C310.729 25.9726 308.941 27.5109 308.293 31.2843C307.452 36.1712 307.431 41.0988 308.124 46.0021C308.63 49.5824 310.29 51.0617 313.897 51.3401C317.358 51.6083 320.676 50.8667 323.941 49.7877C324.561 49.5824 324.541 49.1862 324.539 48.7026C324.533 45.3254 324.535 41.9482 324.535 38.571H324.537Z" fill="#777373"/>
<path d="M174.594 58.1861H170.881C166.39 45.3052 161.904 32.4406 157.366 19.4196C158.707 19.4196 159.943 19.4196 161.178 19.4196C162.871 19.4196 164.564 19.4582 166.252 19.4013C166.963 19.3769 167.242 19.6228 167.451 20.2812C170.241 29.0431 173.059 37.797 175.872 46.5529C176.282 47.831 176.695 49.1091 177.31 50.4035C177.574 49.6252 177.849 48.849 178.101 48.0647C181.086 38.7967 184.063 29.5267 187.068 20.2649C187.176 19.9357 187.57 19.4623 187.84 19.4562C190.847 19.3993 193.855 19.4196 197.017 19.4196C196.645 20.4884 196.316 21.4556 195.974 22.4188C190.628 37.4312 185.318 52.4558 179.893 67.4398C179.147 69.5002 177.995 71.4753 176.721 73.2716C174.971 75.7385 172.342 76.7098 169.347 76.4415C167.069 76.2383 164.809 75.8482 162.542 75.5373C161.81 75.4357 161.577 75.0273 161.603 74.2795C161.664 72.599 161.621 70.9165 161.621 69.3153C163.139 69.3153 164.58 69.2625 166.014 69.3275C168.831 69.4535 170.765 68.2323 171.789 65.6333C172.748 63.199 173.636 60.7382 174.594 58.1861Z" fill="#777373"/>
<path d="M255.028 19.4196C257.034 19.4196 258.992 19.4013 260.947 19.4439C261.185 19.45 261.514 19.7426 261.628 19.9824C261.955 20.6713 262.195 21.4007 262.498 22.1892C265.635 20.5229 268.892 19.4419 272.278 18.7632C274.911 18.2349 277.571 18.0723 280.243 18.4808C284.906 19.194 287.753 22.2014 288.369 27.1147C288.528 28.3827 288.617 29.669 288.619 30.9471C288.639 39.7253 288.631 48.5036 288.629 57.2818C288.629 57.5439 288.607 57.806 288.591 58.1169H279.816C279.816 57.7146 279.816 57.3245 279.816 56.9343C279.816 48.7982 279.82 40.6621 279.81 32.5239C279.81 31.6156 279.753 30.7053 279.674 29.799C279.499 27.83 278.603 26.7185 276.671 26.3893C272.446 25.672 268.323 26.2958 264.288 27.5943C264.048 27.6715 263.814 28.1937 263.808 28.5127C263.77 31.0446 263.786 33.5765 263.786 36.1084V58.1129H255.024V19.4196H255.028Z" fill="#777373"/>
<path d="M214.697 19.4256H224.381V26.6615H214.518V58.1128H205.752V26.69H200.321V19.456H205.73C205.73 17.3041 205.671 15.2864 205.748 13.2706C205.813 11.5231 205.876 9.75121 206.209 8.0423C207.079 3.59222 210.18 0.962813 214.754 0.623469C218.527 0.343054 222.238 0.729133 225.899 1.67198C226.611 1.85486 226.871 2.15763 226.846 2.91353C226.785 4.72811 226.826 6.54675 226.826 8.1947C224.857 8.1947 222.979 8.15406 221.106 8.20892C219.696 8.24956 218.271 8.31865 216.883 8.55233C215.684 8.75553 214.784 9.62522 214.734 10.8241C214.614 13.6425 214.695 16.469 214.695 19.4276L214.697 19.4256Z" fill="#777373"/>
<path d="M233.45 19.458H242.19V58.0965H233.45V19.458Z" fill="#777373"/>
<path d="M237.648 2.80194C241.887 2.78569 242.948 3.84436 242.931 7.93477C242.915 11.8342 241.855 12.8888 237.929 12.903C237.827 12.903 237.725 12.903 237.624 12.903C233.749 12.8725 232.522 11.6228 232.615 7.77221C232.631 7.13416 232.684 6.49205 232.778 5.86213C233.048 4.05568 234.092 3.11284 236.067 2.88322C236.636 2.81617 237.213 2.82429 237.646 2.80194H237.648Z" fill="#777373"/>
<path d="M5.9741 30.4349C4.97436 35.8604 4.97232 41.1476 5.968 46.5344C4.48871 46.5344 3.11305 46.63 1.7577 46.504C0.725447 46.4085 0.0325357 45.5184 0.0244078 44.4354C-0.00607223 40.4913 -0.0101362 36.5451 0.0244078 32.599C0.0345677 31.4082 0.885975 30.5121 2.04015 30.4491C3.2817 30.3801 4.52935 30.4329 5.97816 30.4329L5.9741 30.4349Z" fill="#4B93CF"/>
<path d="M87.193 46.2032C87.9347 40.79 88.0871 35.517 87.0447 30.1992C88.4386 30.1992 89.8204 30.1748 91.2021 30.2073C92.2039 30.2297 92.9964 31.0364 93.0045 32.1438C93.035 36.1875 93.033 40.2332 93.0045 44.2769C92.9964 45.2665 92.1145 46.1443 91.1127 46.189C89.8366 46.2459 88.5565 46.2032 87.195 46.2032H87.193Z" fill="#4B93CF"/>
<path d="M34.4891 38.5061C34.4891 35.9072 34.4789 33.3083 34.4911 30.7093C34.5033 28.2344 36.1553 26.5823 38.6242 26.5803C43.8667 26.5742 49.1093 26.5722 54.3519 26.5803C56.8045 26.5844 58.487 28.2628 58.491 30.7154C58.4992 35.9133 58.4992 41.1111 58.491 46.309C58.487 48.7616 56.8045 50.436 54.3458 50.44C49.1032 50.4461 43.8607 50.4482 38.6181 50.44C36.1533 50.436 34.5033 48.7799 34.4911 46.3029C34.4789 43.704 34.4891 41.105 34.4891 38.5061Z" fill="#777373"/>
<path d="M28.5782 38.6361C28.5782 41.3691 28.5822 44.1021 28.5782 46.8372C28.5741 49.2919 27.2716 50.5984 24.8271 50.6086C23.8131 50.6127 22.7951 50.5659 21.7852 50.6249C21.0984 50.6635 20.7631 50.4095 20.501 49.7836C17.965 43.7222 17.516 37.5225 19.2411 31.1868C19.5947 29.8924 20.0804 28.6264 20.5985 27.3869C20.7225 27.0882 21.2101 26.7834 21.5495 26.759C22.6935 26.6818 23.8477 26.7143 24.9958 26.7347C27.2879 26.7712 28.5579 28.0392 28.5741 30.3374C28.5924 33.105 28.5782 35.8726 28.5782 38.6381V38.6361Z" fill="#4B93CF"/>
<path d="M64.382 38.5039C64.382 35.7038 64.3779 32.9037 64.382 30.1036C64.3861 27.8928 65.6926 26.5964 67.9177 26.5822C68.9987 26.5761 70.0838 26.631 71.1628 26.5639C71.8658 26.5192 72.1767 26.8017 72.4328 27.4113C75.0053 33.5398 75.4361 39.8003 73.6235 46.195C73.276 47.4224 72.8067 48.6213 72.2987 49.7917C72.1706 50.0884 71.6891 50.3932 71.3517 50.4155C70.1732 50.4907 68.9865 50.4562 67.8039 50.4419C65.7129 50.4155 64.3901 49.0927 64.384 47.0099C64.3739 44.1752 64.382 41.3406 64.382 38.508V38.5039Z" fill="#4B93CF"/>
<path d="M48.8778 10.3953C53.1166 10.8038 56.7965 11.9579 60.2144 13.9005C61.269 14.5 62.2606 15.2112 63.2685 15.8858C63.8923 16.3044 64.2987 16.849 63.7419 17.5663C63.2238 18.2328 62.6345 17.997 62.0614 17.5642C58.9444 15.2031 55.4534 13.6547 51.6251 12.8703C50.7676 12.6956 49.8877 12.6346 49.0241 12.4842C48.3536 12.3684 47.9533 11.9132 48.1483 11.265C48.2662 10.8729 48.7132 10.5782 48.8778 10.3933V10.3953Z" fill="#4B93CF"/>
</svg>
